<svg xmlns="http://www.w3.org/2000/svg"  viewBox="0 0 48 48" width="48px" height="48px"><path fill="#3dd9eb" d="M24,4C12.954,4,4,12.954,4,24s8.954,20,20,20s20-8.954,20-20S35.046,4,24,4z"/><path fill="#c2ffff" d="M21.009,20.546v3.498l-0.001,5.258v14.475C21.984,43.924,22.983,44,24,44 c0.918,0,1.822-0.062,2.707-0.182V21.169c0-2.184,0.714-4.121,2.757-4.121h3.283V12.46c-0.577-0.078-1.797-0.248-4.102-0.248 C23.831,12.212,21.009,14.754,21.009,20.546z"/><polygon fill="#c2ffff" points="32,30 16,30 16,24 33,24"/><polygon fill="#fff" points="26.707,30 26.707,24 21.009,24 21.009,24.044 21.008,29.302 21.008,30"/></svg>