<svg id="visual" viewBox="0 0 900 600" width="900" height="600" xmlns="http://www.w3.org/2000/svg" xmlns:xlink="http://www.w3.org/1999/xlink" version="1.1"><rect x="0" y="0" width="900" height="600" fill="#3a0101"></rect><path d="M0 194L30 195.7C60 197.3 120 200.7 180 201.7C240 202.7 300 201.3 360 201C420 200.7 480 201.3 540 198C600 194.7 660 187.3 720 189.3C780 191.3 840 202.7 870 208.3L900 214L900 0L870 0C840 0 780 0 720 0C660 0 600 0 540 0C480 0 420 0 360 0C300 0 240 0 180 0C120 0 60 0 30 0L0 0Z" fill="#ffe571"></path><path d="M0 145L30 143.2C60 141.3 120 137.7 180 138.5C240 139.3 300 144.7 360 153.5C420 162.3 480 174.7 540 178.7C600 182.7 660 178.3 720 171.7C780 165 840 156 870 151.5L900 147L900 0L870 0C840 0 780 0 720 0C660 0 600 0 540 0C480 0 420 0 360 0C300 0 240 0 180 0C120 0 60 0 30 0L0 0Z" fill="#ffc043"></path><path d="M0 128L30 128.7C60 129.3 120 130.7 180 134.8C240 139 300 146 360 145.5C420 145 480 137 540 134.8C600 132.7 660 136.3 720 137.5C780 138.7 840 137.3 870 136.7L900 136L900 0L870 0C840 0 780 0 720 0C660 0 600 0 540 0C480 0 420 0 360 0C300 0 240 0 180 0C120 0 60 0 30 0L0 0Z" fill="#ff971b"></path><path d="M0 83L30 86C60 89 120 95 180 98C240 101 300 101 360 95.7C420 90.3 480 79.7 540 74C600 68.3 660 67.7 720 69C780 70.3 840 73.7 870 75.3L900 77L900 0L870 0C840 0 780 0 720 0C660 0 600 0 540 0C480 0 420 0 360 0C300 0 240 0 180 0C120 0 60 0 30 0L0 0Z" fill="#ff6605"></path><path d="M0 33L30 36.2C60 39.3 120 45.7 180 48.8C240 52 300 52 360 54.3C420 56.7 480 61.3 540 59.8C600 58.3 660 50.7 720 48.8C780 47 840 51 870 53L900 55L900 0L870 0C840 0 780 0 720 0C660 0 600 0 540 0C480 0 420 0 360 0C300 0 240 0 180 0C120 0 60 0 30 0L0 0Z" fill="#ff0017"></path></svg>