<svg width="380" height="200" viewBox="0 0 380 200" fill="none" xmlns="http://www.w3.org/2000/svg">
<rect width="380" height="200" rx="100" fill="#7C0000"/>
<path d="M190 104C190 115.556 187.724 126.999 183.301 137.676C178.879 148.353 172.397 158.054 164.225 166.225C156.054 174.397 146.353 180.879 135.676 185.301C124.999 189.724 113.556 192 102 192C90.4437 192 79.0005 189.724 68.3239 185.301C57.6472 180.879 47.9462 174.397 39.7746 166.225C31.603 158.054 25.121 148.353 20.6986 137.676C16.2762 126.999 14 115.556 14 104L102 104H190Z" fill="white"/>
<path d="M190 104C190 115.556 187.724 126.999 183.301 137.676C178.879 148.353 172.397 158.054 164.225 166.225C156.054 174.397 146.353 180.879 135.676 185.301C124.999 189.724 113.556 192 102 192C90.4437 192 79.0005 189.724 68.3239 185.301C57.6472 180.879 47.9462 174.397 39.7746 166.225C31.603 158.054 25.121 148.353 20.6986 137.676C16.2762 126.999 14 115.556 14 104L102 104H190Z" stroke="black"/>
<path d="M190 98C190 86.181 187.724 74.4778 183.301 63.5585C178.879 52.6392 172.397 42.7177 164.225 34.3604C156.054 26.0031 146.353 19.3738 135.676 14.8508C124.999 10.3279 113.556 8 102 8C90.4437 8 79.0005 10.3279 68.3239 14.8508C57.6472 19.3738 47.9462 26.0031 39.7746 34.3604C31.603 42.7177 25.121 52.6392 20.6986 63.5585C16.2762 74.4778 14 86.181 14 98L102 98H190Z" fill="#EE1515"/>
<path d="M190 98C190 86.181 187.724 74.4778 183.301 63.5585C178.879 52.6392 172.397 42.7177 164.225 34.3604C156.054 26.0031 146.353 19.3738 135.676 14.8508C124.999 10.3279 113.556 8 102 8C90.4437 8 79.0005 10.3279 68.3239 14.8508C57.6472 19.3738 47.9462 26.0031 39.7746 34.3604C31.603 42.7177 25.121 52.6392 20.6986 63.5585C16.2762 74.4778 14 86.181 14 98L102 98H190Z" stroke="black"/>
<path d="M118 100C118 109.389 110.389 117 101 117C91.6112 117 84 109.389 84 100C84 90.6112 91.6112 83 101 83C110.389 83 118 90.6112 118 100Z" fill="white" stroke="black" stroke-width="6"/>
<line x1="67" y1="83" x2="67" y2="23" stroke="#EE1515" stroke-width="28"/>
<line x1="131" y1="83" x2="131" y2="23" stroke="#EE1515" stroke-width="28"/>
<path d="M160 35.318C152.252 28.2423 143.054 22.6296 132.931 18.8002C122.807 14.9709 111.957 13 101 13C90.0427 13 79.1927 14.9709 69.0694 18.8003C58.9462 22.6296 49.748 28.2423 42 35.318L61.3621 53C66.5675 48.2464 72.7471 44.4756 79.5481 41.9029C86.3492 39.3303 93.6386 38.0061 101 38.0061C108.361 38.0061 115.651 39.3303 122.452 41.9029C129.253 44.4756 135.433 48.2463 140.638 53L160 35.318Z" fill="#EE1515"/>
</svg>
