<svg width="380" height="200" viewBox="0 0 380 200" fill="none" xmlns="http://www.w3.org/2000/svg">
<path d="M0 100C0 44.7715 44.7715 0 100 0H280C335.228 0 380 44.7715 380 100V100C380 155.228 335.228 200 280 200H100C44.7715 200 0 155.228 0 100V100Z" fill="#888888"/>
<path d="M367 104C367 115.556 364.724 126.999 360.301 137.676C355.879 148.353 349.397 158.054 341.225 166.225C333.054 174.397 323.353 180.879 312.676 185.301C301.999 189.724 290.556 192 279 192C267.444 192 256.001 189.724 245.324 185.301C234.647 180.879 224.946 174.397 216.775 166.225C208.603 158.054 202.121 148.353 197.699 137.676C193.276 126.999 191 115.556 191 104L279 104H367Z" fill="white"/>
<path d="M367 104C367 115.556 364.724 126.999 360.301 137.676C355.879 148.353 349.397 158.054 341.225 166.225C333.054 174.397 323.353 180.879 312.676 185.301C301.999 189.724 290.556 192 279 192C267.444 192 256.001 189.724 245.324 185.301C234.647 180.879 224.946 174.397 216.775 166.225C208.603 158.054 202.121 148.353 197.699 137.676C193.276 126.999 191 115.556 191 104L279 104H367Z" stroke="black"/>
<path d="M357.448 65.3093C361.524 75.3731 363.736 86.1191 363.978 97H278L192.022 97C192.264 86.1191 194.476 75.3731 198.552 65.3093C202.878 54.6294 209.217 44.9282 217.205 36.7586C225.193 28.5891 234.673 22.1112 245.104 17.6924C255.535 13.2737 266.713 11 278 11C289.287 11 300.465 13.2737 310.896 17.6924C321.327 22.1112 330.807 28.5891 338.795 36.7586C346.783 44.9282 353.122 54.6293 357.448 65.3093Z" fill="black" stroke="black" stroke-width="4"/>
<path d="M337 31.318C329.252 24.2423 320.054 18.6296 309.931 14.8002C299.807 10.9709 288.957 9 278 9C267.043 9 256.193 10.9709 246.069 14.8003C235.946 18.6296 226.748 24.2423 219 31.318L238.362 49C243.567 44.2464 249.747 40.4756 256.548 37.9029C263.349 35.3303 270.639 34.0061 278 34.0061C285.361 34.0061 292.651 35.3303 299.452 37.9029C306.253 40.4756 312.433 44.2463 317.638 49L337 31.318Z" fill="#FFB800"/>
<path d="M295 102C295 111.389 287.389 119 278 119C268.611 119 261 111.389 261 102C261 92.6112 268.611 85 278 85C287.389 85 295 92.6112 295 102Z" fill="white" stroke="#797979" stroke-width="6"/>
<line x1="234" y1="90" x2="234" y2="30" stroke="#FFB800" stroke-width="28"/>
<line x1="323" y1="90" x2="323" y2="30" stroke="#FFB800" stroke-width="28"/>
</svg>
