<svg id="visual" viewBox="0 0 960 540" width="960" height="540" xmlns="http://www.w3.org/2000/svg" xmlns:xlink="http://www.w3.org/1999/xlink" version="1.1"><rect x="0" y="0" width="960" height="540" fill="#3a0101"></rect><path d="M0 382L22.8 381.2C45.7 380.3 91.3 378.7 137 377.3C182.7 376 228.3 375 274 377C319.7 379 365.3 384 411.2 377.2C457 370.3 503 351.7 548.8 346.7C594.7 341.7 640.3 350.3 686 357.3C731.7 364.3 777.3 369.7 823 364.7C868.7 359.7 914.3 344.3 937.2 336.7L960 329L960 541L937.2 541C914.3 541 868.7 541 823 541C777.3 541 731.7 541 686 541C640.3 541 594.7 541 548.8 541C503 541 457 541 411.2 541C365.3 541 319.7 541 274 541C228.3 541 182.7 541 137 541C91.3 541 45.7 541 22.8 541L0 541Z" fill="#ff8300"></path><path d="M0 373L22.8 370.2C45.7 367.3 91.3 361.7 137 361.3C182.7 361 228.3 366 274 367.3C319.7 368.7 365.3 366.3 411.2 365.3C457 364.3 503 364.7 548.8 373.3C594.7 382 640.3 399 686 408C731.7 417 777.3 418 823 413.2C868.7 408.3 914.3 397.7 937.2 392.3L960 387L960 541L937.2 541C914.3 541 868.7 541 823 541C777.3 541 731.7 541 686 541C640.3 541 594.7 541 548.8 541C503 541 457 541 411.2 541C365.3 541 319.7 541 274 541C228.3 541 182.7 541 137 541C91.3 541 45.7 541 22.8 541L0 541Z" fill="#eb6800"></path><path d="M0 432L22.8 428.2C45.7 424.3 91.3 416.7 137 419.7C182.7 422.7 228.3 436.3 274 444C319.7 451.7 365.3 453.3 411.2 448.7C457 444 503 433 548.8 424.5C594.7 416 640.3 410 686 413.2C731.7 416.3 777.3 428.7 823 434.7C868.7 440.7 914.3 440.3 937.2 440.2L960 440L960 541L937.2 541C914.3 541 868.7 541 823 541C777.3 541 731.7 541 686 541C640.3 541 594.7 541 548.8 541C503 541 457 541 411.2 541C365.3 541 319.7 541 274 541C228.3 541 182.7 541 137 541C91.3 541 45.7 541 22.8 541L0 541Z" fill="#d54c00"></path><path d="M0 453L22.8 450C45.7 447 91.3 441 137 438.7C182.7 436.3 228.3 437.7 274 437.8C319.7 438 365.3 437 411.2 444.5C457 452 503 468 548.8 473.5C594.7 479 640.3 474 686 473.3C731.7 472.7 777.3 476.3 823 478.3C868.7 480.3 914.3 480.7 937.2 480.8L960 481L960 541L937.2 541C914.3 541 868.7 541 823 541C777.3 541 731.7 541 686 541C640.3 541 594.7 541 548.8 541C503 541 457 541 411.2 541C365.3 541 319.7 541 274 541C228.3 541 182.7 541 137 541C91.3 541 45.7 541 22.8 541L0 541Z" fill="#be2e00"></path><path d="M0 504L22.8 503.7C45.7 503.3 91.3 502.7 137 504.3C182.7 506 228.3 510 274 510.5C319.7 511 365.3 508 411.2 507.3C457 506.7 503 508.3 548.8 507C594.7 505.7 640.3 501.3 686 499.2C731.7 497 777.3 497 823 499.7C868.7 502.3 914.3 507.7 937.2 510.3L960 513L960 541L937.2 541C914.3 541 868.7 541 823 541C777.3 541 731.7 541 686 541C640.3 541 594.7 541 548.8 541C503 541 457 541 411.2 541C365.3 541 319.7 541 274 541C228.3 541 182.7 541 137 541C91.3 541 45.7 541 22.8 541L0 541Z" fill="#a70000"></path></svg>