<svg id="visual" viewBox="0 0 2560 1440" width="2560" height="1440" xmlns="http://www.w3.org/2000/svg" xmlns:xlink="http://www.w3.org/1999/xlink" version="1.1"><rect x="0" y="0" width="2560" height="1440" fill="#3a0101"></rect><path d="M0 891L61 902.7C122 914.3 244 937.7 365.8 950C487.7 962.3 609.3 963.7 731.2 952C853 940.3 975 915.7 1097 930.7C1219 945.7 1341 1000.3 1463 994.2C1585 988 1707 921 1828.8 889.3C1950.7 857.7 2072.3 861.3 2194.2 862.2C2316 863 2438 861 2499 860L2560 859L2560 1441L2499 1441C2438 1441 2316 1441 2194.2 1441C2072.3 1441 1950.7 1441 1828.8 1441C1707 1441 1585 1441 1463 1441C1341 1441 1219 1441 1097 1441C975 1441 853 1441 731.2 1441C609.3 1441 487.7 1441 365.8 1441C244 1441 122 1441 61 1441L0 1441Z" fill="#ff2700"></path><path d="M0 1097L61 1081.5C122 1066 244 1035 365.8 1017.7C487.7 1000.3 609.3 996.7 731.2 988.3C853 980 975 967 1097 990.7C1219 1014.3 1341 1074.7 1463 1105.2C1585 1135.7 1707 1136.3 1828.8 1135C1950.7 1133.7 2072.3 1130.3 2194.2 1099.8C2316 1069.3 2438 1011.7 2499 982.8L2560 954L2560 1441L2499 1441C2438 1441 2316 1441 2194.2 1441C2072.3 1441 1950.7 1441 1828.8 1441C1707 1441 1585 1441 1463 1441C1341 1441 1219 1441 1097 1441C975 1441 853 1441 731.2 1441C609.3 1441 487.7 1441 365.8 1441C244 1441 122 1441 61 1441L0 1441Z" fill="#fe7400"></path><path d="M0 1192L61 1179.8C122 1167.7 244 1143.3 365.8 1148.2C487.7 1153 609.3 1187 731.2 1188.7C853 1190.3 975 1159.7 1097 1159.5C1219 1159.3 1341 1189.7 1463 1190.2C1585 1190.7 1707 1161.3 1828.8 1154.8C1950.7 1148.3 2072.3 1164.7 2194.2 1177.3C2316 1190 2438 1199 2499 1203.5L2560 1208L2560 1441L2499 1441C2438 1441 2316 1441 2194.2 1441C2072.3 1441 1950.7 1441 1828.8 1441C1707 1441 1585 1441 1463 1441C1341 1441 1219 1441 1097 1441C975 1441 853 1441 731.2 1441C609.3 1441 487.7 1441 365.8 1441C244 1441 122 1441 61 1441L0 1441Z" fill="#fba427"></path><path d="M0 1284L61 1282.3C122 1280.7 244 1277.3 365.8 1256.2C487.7 1235 609.3 1196 731.2 1194.3C853 1192.7 975 1228.3 1097 1229.5C1219 1230.7 1341 1197.3 1463 1200.8C1585 1204.3 1707 1244.7 1828.8 1253.7C1950.7 1262.7 2072.3 1240.3 2194.2 1220.7C2316 1201 2438 1184 2499 1175.5L2560 1167L2560 1441L2499 1441C2438 1441 2316 1441 2194.2 1441C2072.3 1441 1950.7 1441 1828.8 1441C1707 1441 1585 1441 1463 1441C1341 1441 1219 1441 1097 1441C975 1441 853 1441 731.2 1441C609.3 1441 487.7 1441 365.8 1441C244 1441 122 1441 61 1441L0 1441Z" fill="#f9cd59"></path><path d="M0 1338L61 1341C122 1344 244 1350 365.8 1356.2C487.7 1362.3 609.3 1368.7 731.2 1357C853 1345.3 975 1315.7 1097 1304.3C1219 1293 1341 1300 1463 1305.8C1585 1311.7 1707 1316.3 1828.8 1325C1950.7 1333.7 2072.3 1346.3 2194.2 1351.7C2316 1357 2438 1355 2499 1354L2560 1353L2560 1441L2499 1441C2438 1441 2316 1441 2194.2 1441C2072.3 1441 1950.7 1441 1828.8 1441C1707 1441 1585 1441 1463 1441C1341 1441 1219 1441 1097 1441C975 1441 853 1441 731.2 1441C609.3 1441 487.7 1441 365.8 1441C244 1441 122 1441 61 1441L0 1441Z" fill="#faf191"></path></svg>