<svg id="visual" viewBox="0 0 2560 1440" width="2560" height="1440" xmlns="http://www.w3.org/2000/svg" xmlns:xlink="http://www.w3.org/1999/xlink" version="1.1"><rect x="0" y="0" width="2560" height="1440" fill="#3a0101"></rect><path d="M0 547L61 535.3C122 523.7 244 500.3 365.8 488C487.7 475.7 609.3 474.3 731.2 486C853 497.7 975 522.3 1097 507.3C1219 492.3 1341 437.7 1463 443.8C1585 450 1707 517 1828.8 548.7C1950.7 580.3 2072.3 576.7 2194.2 575.8C2316 575 2438 577 2499 578L2560 579L2560 0L2499 0C2438 0 2316 0 2194.2 0C2072.3 0 1950.7 0 1828.8 0C1707 0 1585 0 1463 0C1341 0 1219 0 1097 0C975 0 853 0 731.2 0C609.3 0 487.7 0 365.8 0C244 0 122 0 61 0L0 0Z" fill="#faf191"></path><path d="M0 341L61 356.5C122 372 244 403 365.8 420.3C487.7 437.7 609.3 441.3 731.2 449.7C853 458 975 471 1097 447.3C1219 423.7 1341 363.3 1463 332.8C1585 302.3 1707 301.7 1828.8 303C1950.7 304.3 2072.3 307.7 2194.2 338.2C2316 368.7 2438 426.3 2499 455.2L2560 484L2560 0L2499 0C2438 0 2316 0 2194.2 0C2072.3 0 1950.7 0 1828.8 0C1707 0 1585 0 1463 0C1341 0 1219 0 1097 0C975 0 853 0 731.2 0C609.3 0 487.7 0 365.8 0C244 0 122 0 61 0L0 0Z" fill="#f9cd59"></path><path d="M0 246L61 258.2C122 270.3 244 294.7 365.8 289.8C487.7 285 609.3 251 731.2 249.3C853 247.7 975 278.3 1097 278.5C1219 278.7 1341 248.3 1463 247.8C1585 247.3 1707 276.7 1828.8 283.2C1950.7 289.7 2072.3 273.3 2194.2 260.7C2316 248 2438 239 2499 234.5L2560 230L2560 0L2499 0C2438 0 2316 0 2194.2 0C2072.3 0 1950.7 0 1828.8 0C1707 0 1585 0 1463 0C1341 0 1219 0 1097 0C975 0 853 0 731.2 0C609.3 0 487.7 0 365.8 0C244 0 122 0 61 0L0 0Z" fill="#fba427"></path><path d="M0 154L61 155.7C122 157.3 244 160.7 365.8 181.8C487.7 203 609.3 242 731.2 243.7C853 245.3 975 209.7 1097 208.5C1219 207.3 1341 240.7 1463 237.2C1585 233.7 1707 193.3 1828.8 184.3C1950.7 175.3 2072.3 197.7 2194.2 217.3C2316 237 2438 254 2499 262.5L2560 271L2560 0L2499 0C2438 0 2316 0 2194.2 0C2072.3 0 1950.7 0 1828.8 0C1707 0 1585 0 1463 0C1341 0 1219 0 1097 0C975 0 853 0 731.2 0C609.3 0 487.7 0 365.8 0C244 0 122 0 61 0L0 0Z" fill="#fe7400"></path><path d="M0 100L61 97C122 94 244 88 365.8 81.8C487.7 75.7 609.3 69.3 731.2 81C853 92.7 975 122.3 1097 133.7C1219 145 1341 138 1463 132.2C1585 126.3 1707 121.7 1828.8 113C1950.7 104.3 2072.3 91.7 2194.2 86.3C2316 81 2438 83 2499 84L2560 85L2560 0L2499 0C2438 0 2316 0 2194.2 0C2072.3 0 1950.7 0 1828.8 0C1707 0 1585 0 1463 0C1341 0 1219 0 1097 0C975 0 853 0 731.2 0C609.3 0 487.7 0 365.8 0C244 0 122 0 61 0L0 0Z" fill="#ff2700"></path></svg>