<svg id="visual" viewBox="0 0 2560 1440" width="2560" height="1440" xmlns="http://www.w3.org/2000/svg" xmlns:xlink="http://www.w3.org/1999/xlink" version="1.1"><rect x="0" y="0" width="2560" height="1440" fill="#000000"></rect><path d="M0 618L61 592.5C122 567 244 516 365.8 512.2C487.7 508.3 609.3 551.7 731.2 575.3C853 599 975 603 1097 595.5C1219 588 1341 569 1463 560.3C1585 551.7 1707 553.3 1828.8 540.2C1950.7 527 2072.3 499 2194.2 495C2316 491 2438 511 2499 521L2560 531L2560 0L2499 0C2438 0 2316 0 2194.2 0C2072.3 0 1950.7 0 1828.8 0C1707 0 1585 0 1463 0C1341 0 1219 0 1097 0C975 0 853 0 731.2 0C609.3 0 487.7 0 365.8 0C244 0 122 0 61 0L0 0Z" fill="#ffa200"></path><path d="M0 377L61 372C122 367 244 357 365.8 347C487.7 337 609.3 327 731.2 345.5C853 364 975 411 1097 429C1219 447 1341 436 1463 431.5C1585 427 1707 429 1828.8 414.3C1950.7 399.7 2072.3 368.3 2194.2 365.3C2316 362.3 2438 387.7 2499 400.3L2560 413L2560 0L2499 0C2438 0 2316 0 2194.2 0C2072.3 0 1950.7 0 1828.8 0C1707 0 1585 0 1463 0C1341 0 1219 0 1097 0C975 0 853 0 731.2 0C609.3 0 487.7 0 365.8 0C244 0 122 0 61 0L0 0Z" fill="#c68633"></path><path d="M0 261L61 269.5C122 278 244 295 365.8 293C487.7 291 609.3 270 731.2 271.3C853 272.7 975 296.3 1097 305.8C1219 315.3 1341 310.7 1463 312C1585 313.3 1707 320.7 1828.8 322.8C1950.7 325 2072.3 322 2194.2 323C2316 324 2438 329 2499 331.5L2560 334L2560 0L2499 0C2438 0 2316 0 2194.2 0C2072.3 0 1950.7 0 1828.8 0C1707 0 1585 0 1463 0C1341 0 1219 0 1097 0C975 0 853 0 731.2 0C609.3 0 487.7 0 365.8 0C244 0 122 0 61 0L0 0Z" fill="#8e6c46"></path><path d="M0 161L61 147.8C122 134.7 244 108.3 365.8 117.2C487.7 126 609.3 170 731.2 187C853 204 975 194 1097 171.5C1219 149 1341 114 1463 108.7C1585 103.3 1707 127.7 1828.8 130.5C1950.7 133.3 2072.3 114.7 2194.2 123.5C2316 132.3 2438 168.7 2499 186.8L2560 205L2560 0L2499 0C2438 0 2316 0 2194.2 0C2072.3 0 1950.7 0 1828.8 0C1707 0 1585 0 1463 0C1341 0 1219 0 1097 0C975 0 853 0 731.2 0C609.3 0 487.7 0 365.8 0C244 0 122 0 61 0L0 0Z" fill="#535353"></path></svg>