<svg id="visual" viewBox="0 0 960 540" width="960" height="540" xmlns="http://www.w3.org/2000/svg" xmlns:xlink="http://www.w3.org/1999/xlink" version="1.1"><rect x="0" y="0" width="960" height="540" fill="#3a0101"></rect><path d="M0 156L22.8 156.8C45.7 157.7 91.3 159.3 137 160.7C182.7 162 228.3 163 274 161C319.7 159 365.3 154 411.2 160.8C457 167.7 503 186.3 548.8 191.3C594.7 196.3 640.3 187.7 686 180.7C731.7 173.7 777.3 168.3 823 173.3C868.7 178.3 914.3 193.7 937.2 201.3L960 209L960 0L937.2 0C914.3 0 868.7 0 823 0C777.3 0 731.7 0 686 0C640.3 0 594.7 0 548.8 0C503 0 457 0 411.2 0C365.3 0 319.7 0 274 0C228.3 0 182.7 0 137 0C91.3 0 45.7 0 22.8 0L0 0Z" fill="#ff8300"></path><path d="M0 165L22.8 167.8C45.7 170.7 91.3 176.3 137 176.7C182.7 177 228.3 172 274 170.7C319.7 169.3 365.3 171.7 411.2 172.7C457 173.7 503 173.3 548.8 164.7C594.7 156 640.3 139 686 130C731.7 121 777.3 120 823 124.8C868.7 129.7 914.3 140.3 937.2 145.7L960 151L960 0L937.2 0C914.3 0 868.7 0 823 0C777.3 0 731.7 0 686 0C640.3 0 594.7 0 548.8 0C503 0 457 0 411.2 0C365.3 0 319.7 0 274 0C228.3 0 182.7 0 137 0C91.3 0 45.7 0 22.8 0L0 0Z" fill="#eb6800"></path><path d="M0 106L22.8 109.8C45.7 113.7 91.3 121.3 137 118.3C182.7 115.3 228.3 101.7 274 94C319.7 86.3 365.3 84.7 411.2 89.3C457 94 503 105 548.8 113.5C594.7 122 640.3 128 686 124.8C731.7 121.7 777.3 109.3 823 103.3C868.7 97.3 914.3 97.7 937.2 97.8L960 98L960 0L937.2 0C914.3 0 868.7 0 823 0C777.3 0 731.7 0 686 0C640.3 0 594.7 0 548.8 0C503 0 457 0 411.2 0C365.3 0 319.7 0 274 0C228.3 0 182.7 0 137 0C91.3 0 45.7 0 22.8 0L0 0Z" fill="#d54c00"></path><path d="M0 85L22.8 88C45.7 91 91.3 97 137 99.3C182.7 101.7 228.3 100.3 274 100.2C319.7 100 365.3 101 411.2 93.5C457 86 503 70 548.8 64.5C594.7 59 640.3 64 686 64.7C731.7 65.3 777.3 61.7 823 59.7C868.7 57.7 914.3 57.3 937.2 57.2L960 57L960 0L937.2 0C914.3 0 868.7 0 823 0C777.3 0 731.7 0 686 0C640.3 0 594.7 0 548.8 0C503 0 457 0 411.2 0C365.3 0 319.7 0 274 0C228.3 0 182.7 0 137 0C91.3 0 45.7 0 22.8 0L0 0Z" fill="#be2e00"></path><path d="M0 34L22.8 34.3C45.7 34.7 91.3 35.3 137 33.7C182.7 32 228.3 28 274 27.5C319.7 27 365.3 30 411.2 30.7C457 31.3 503 29.7 548.8 31C594.7 32.3 640.3 36.7 686 38.8C731.7 41 777.3 41 823 38.3C868.7 35.7 914.3 30.3 937.2 27.7L960 25L960 0L937.2 0C914.3 0 868.7 0 823 0C777.3 0 731.7 0 686 0C640.3 0 594.7 0 548.8 0C503 0 457 0 411.2 0C365.3 0 319.7 0 274 0C228.3 0 182.7 0 137 0C91.3 0 45.7 0 22.8 0L0 0Z" fill="#a70000"></path></svg>