<svg id="visual" viewBox="0 0 900 600" width="900" height="600" xmlns="http://www.w3.org/2000/svg" xmlns:xlink="http://www.w3.org/1999/xlink" version="1.1"><rect x="0" y="0" width="900" height="600" fill="#000000"></rect><path d="M0 459L21.5 444.5C43 430 86 401 128.8 388C171.7 375 214.3 378 257.2 381C300 384 343 387 385.8 394.7C428.7 402.3 471.3 414.7 514.2 413.2C557 411.7 600 396.3 642.8 384.7C685.7 373 728.3 365 771.2 363.7C814 362.3 857 367.7 878.5 370.3L900 373L900 601L878.5 601C857 601 814 601 771.2 601C728.3 601 685.7 601 642.8 601C600 601 557 601 514.2 601C471.3 601 428.7 601 385.8 601C343 601 300 601 257.2 601C214.3 601 171.7 601 128.8 601C86 601 43 601 21.5 601L0 601Z" fill="#00b9ff"></path><path d="M0 471L21.5 465.7C43 460.3 86 449.7 128.8 445C171.7 440.3 214.3 441.7 257.2 448.3C300 455 343 467 385.8 475.7C428.7 484.3 471.3 489.7 514.2 481.8C557 474 600 453 642.8 444.7C685.7 436.3 728.3 440.7 771.2 442.8C814 445 857 445 878.5 445L900 445L900 601L878.5 601C857 601 814 601 771.2 601C728.3 601 685.7 601 642.8 601C600 601 557 601 514.2 601C471.3 601 428.7 601 385.8 601C343 601 300 601 257.2 601C214.3 601 171.7 601 128.8 601C86 601 43 601 21.5 601L0 601Z" fill="#00e0fe"></path><path d="M0 513L21.5 512.5C43 512 86 511 128.8 517.8C171.7 524.7 214.3 539.3 257.2 536.2C300 533 343 512 385.8 505.7C428.7 499.3 471.3 507.7 514.2 508C557 508.3 600 500.7 642.8 503.3C685.7 506 728.3 519 771.2 526.7C814 534.3 857 536.7 878.5 537.8L900 539L900 601L878.5 601C857 601 814 601 771.2 601C728.3 601 685.7 601 642.8 601C600 601 557 601 514.2 601C471.3 601 428.7 601 385.8 601C343 601 300 601 257.2 601C214.3 601 171.7 601 128.8 601C86 601 43 601 21.5 601L0 601Z" fill="#00ffd8"></path></svg>