<svg id="visual" viewBox="0 0 900 600" width="900" height="600" xmlns="http://www.w3.org/2000/svg" xmlns:xlink="http://www.w3.org/1999/xlink" version="1.1"><rect x="0" y="0" width="900" height="600" fill="#3a0101"></rect><path d="M0 179L21.5 179C43 179 86 179 128.8 182C171.7 185 214.3 191 257.2 185.7C300 180.3 343 163.7 385.8 166.8C428.7 170 471.3 193 514.2 203.2C557 213.3 600 210.7 642.8 202.5C685.7 194.3 728.3 180.7 771.2 170.3C814 160 857 153 878.5 149.5L900 146L900 0L878.5 0C857 0 814 0 771.2 0C728.3 0 685.7 0 642.8 0C600 0 557 0 514.2 0C471.3 0 428.7 0 385.8 0C343 0 300 0 257.2 0C214.3 0 171.7 0 128.8 0C86 0 43 0 21.5 0L0 0Z" fill="#760091"></path><path d="M0 161L21.5 156.8C43 152.7 86 144.3 128.8 139C171.7 133.7 214.3 131.3 257.2 137.5C300 143.7 343 158.3 385.8 161.8C428.7 165.3 471.3 157.7 514.2 154.3C557 151 600 152 642.8 153.3C685.7 154.7 728.3 156.3 771.2 154.2C814 152 857 146 878.5 143L900 140L900 0L878.5 0C857 0 814 0 771.2 0C728.3 0 685.7 0 642.8 0C600 0 557 0 514.2 0C471.3 0 428.7 0 385.8 0C343 0 300 0 257.2 0C214.3 0 171.7 0 128.8 0C86 0 43 0 21.5 0L0 0Z" fill="#c70081"></path><path d="M0 104L21.5 93.2C43 82.3 86 60.7 128.8 55.8C171.7 51 214.3 63 257.2 70C300 77 343 79 385.8 79.3C428.7 79.7 471.3 78.3 514.2 72.8C557 67.3 600 57.7 642.8 63C685.7 68.3 728.3 88.7 771.2 94.3C814 100 857 91 878.5 86.5L900 82L900 0L878.5 0C857 0 814 0 771.2 0C728.3 0 685.7 0 642.8 0C600 0 557 0 514.2 0C471.3 0 428.7 0 385.8 0C343 0 300 0 257.2 0C214.3 0 171.7 0 128.8 0C86 0 43 0 21.5 0L0 0Z" fill="#ff0064"></path></svg>