<svg id="visual" viewBox="0 0 900 600" width="900" height="600" xmlns="http://www.w3.org/2000/svg" xmlns:xlink="http://www.w3.org/1999/xlink" version="1.1"><rect x="0" y="0" width="900" height="600" fill="#000000"></rect><path d="M0 177L50 180.2C100 183.3 200 189.7 300 194.5C400 199.3 500 202.7 600 204.7C700 206.7 800 207.3 850 207.7L900 208L900 0L850 0C800 0 700 0 600 0C500 0 400 0 300 0C200 0 100 0 50 0L0 0Z" fill="#012708"></path><path d="M0 157L50 162.8C100 168.7 200 180.3 300 179.7C400 179 500 166 600 155C700 144 800 135 850 130.5L900 126L900 0L850 0C800 0 700 0 600 0C500 0 400 0 300 0C200 0 100 0 50 0L0 0Z" fill="#105632"></path><path d="M0 88L50 90.3C100 92.7 200 97.3 300 99.5C400 101.7 500 101.3 600 110.7C700 120 800 139 850 148.5L900 158L900 0L850 0C800 0 700 0 600 0C500 0 400 0 300 0C200 0 100 0 50 0L0 0Z" fill="#1e8b61"></path><path d="M0 96L50 90.3C100 84.7 200 73.3 300 68.3C400 63.3 500 64.7 600 72.7C700 80.7 800 95.3 850 102.7L900 110L900 0L850 0C800 0 700 0 600 0C500 0 400 0 300 0C200 0 100 0 50 0L0 0Z" fill="#21c398"></path><path d="M0 44L50 43.7C100 43.3 200 42.7 300 43.7C400 44.7 500 47.3 600 50.2C700 53 800 56 850 57.5L900 59L900 0L850 0C800 0 700 0 600 0C500 0 400 0 300 0C200 0 100 0 50 0L0 0Z" fill="#00ffd8"></path></svg>