<svg id="visual" viewBox="0 0 900 600" width="900" height="600" xmlns="http://www.w3.org/2000/svg" xmlns:xlink="http://www.w3.org/1999/xlink" version="1.1"><path d="M0 145L37.5 148C75 151 150 157 225 135C300 113 375 63 450 38C525 13 600 13 675 50C750 87 825 161 862.5 198L900 235L900 0L862.5 0C825 0 750 0 675 0C600 0 525 0 450 0C375 0 300 0 225 0C150 0 75 0 37.5 0L0 0Z" fill="#212121"></path><path d="M0 427L37.5 423C75 419 150 411 225 368C300 325 375 247 450 195C525 143 600 117 675 161C750 205 825 319 862.5 376L900 433L900 233L862.5 196C825 159 750 85 675 48C600 11 525 11 450 36C375 61 300 111 225 133C150 155 75 149 37.5 146L0 143Z" fill="#00bb99"></path><path d="M0 601L37.5 601C75 601 150 601 225 601C300 601 375 601 450 601C525 601 600 601 675 601C750 601 825 601 862.5 601L900 601L900 431L862.5 374C825 317 750 203 675 159C600 115 525 141 450 193C375 245 300 323 225 366C150 409 75 417 37.5 421L0 425Z" fill="#212121"></path></svg>