<svg id="visual" viewBox="0 0 900 600" width="900" height="600" xmlns="http://www.w3.org/2000/svg" xmlns:xlink="http://www.w3.org/1999/xlink" version="1.1"><rect x="0" y="0" width="900" height="600" fill="#3a0101"></rect><path d="M0 190L21.5 195.3C43 200.7 86 211.3 128.8 219.3C171.7 227.3 214.3 232.7 257.2 228.3C300 224 343 210 385.8 211.7C428.7 213.3 471.3 230.7 514.2 227C557 223.3 600 198.7 642.8 196C685.7 193.3 728.3 212.7 771.2 214.3C814 216 857 200 878.5 192L900 184L900 0L878.5 0C857 0 814 0 771.2 0C728.3 0 685.7 0 642.8 0C600 0 557 0 514.2 0C471.3 0 428.7 0 385.8 0C343 0 300 0 257.2 0C214.3 0 171.7 0 128.8 0C86 0 43 0 21.5 0L0 0Z" fill="#ffc46a"></path><path d="M0 136L21.5 141.7C43 147.3 86 158.7 128.8 158C171.7 157.3 214.3 144.7 257.2 145.7C300 146.7 343 161.3 385.8 173C428.7 184.7 471.3 193.3 514.2 187C557 180.7 600 159.3 642.8 148.8C685.7 138.3 728.3 138.7 771.2 138C814 137.3 857 135.7 878.5 134.8L900 134L900 0L878.5 0C857 0 814 0 771.2 0C728.3 0 685.7 0 642.8 0C600 0 557 0 514.2 0C471.3 0 428.7 0 385.8 0C343 0 300 0 257.2 0C214.3 0 171.7 0 128.8 0C86 0 43 0 21.5 0L0 0Z" fill="#eb9c46"></path><path d="M0 101L21.5 98.8C43 96.7 86 92.3 128.8 97.5C171.7 102.7 214.3 117.3 257.2 127.8C300 138.3 343 144.7 385.8 138.5C428.7 132.3 471.3 113.7 514.2 106.2C557 98.7 600 102.3 642.8 103.8C685.7 105.3 728.3 104.7 771.2 108.2C814 111.7 857 119.3 878.5 123.2L900 127L900 0L878.5 0C857 0 814 0 771.2 0C728.3 0 685.7 0 642.8 0C600 0 557 0 514.2 0C471.3 0 428.7 0 385.8 0C343 0 300 0 257.2 0C214.3 0 171.7 0 128.8 0C86 0 43 0 21.5 0L0 0Z" fill="#d67328"></path><path d="M0 106L21.5 98C43 90 86 74 128.8 65.7C171.7 57.3 214.3 56.7 257.2 59.3C300 62 343 68 385.8 72.5C428.7 77 471.3 80 514.2 77.8C557 75.7 600 68.3 642.8 64.2C685.7 60 728.3 59 771.2 67.2C814 75.3 857 92.7 878.5 101.3L900 110L900 0L878.5 0C857 0 814 0 771.2 0C728.3 0 685.7 0 642.8 0C600 0 557 0 514.2 0C471.3 0 428.7 0 385.8 0C343 0 300 0 257.2 0C214.3 0 171.7 0 128.8 0C86 0 43 0 21.5 0L0 0Z" fill="#bf470e"></path><path d="M0 37L21.5 40.8C43 44.7 86 52.3 128.8 58C171.7 63.7 214.3 67.3 257.2 67.5C300 67.7 343 64.3 385.8 61C428.7 57.7 471.3 54.3 514.2 52.8C557 51.3 600 51.7 642.8 53.5C685.7 55.3 728.3 58.7 771.2 58.2C814 57.7 857 53.3 878.5 51.2L900 49L900 0L878.5 0C857 0 814 0 771.2 0C728.3 0 685.7 0 642.8 0C600 0 557 0 514.2 0C471.3 0 428.7 0 385.8 0C343 0 300 0 257.2 0C214.3 0 171.7 0 128.8 0C86 0 43 0 21.5 0L0 0Z" fill="#a70000"></path></svg>